<?xml version="1.0" encoding="UTF-8" standalone="no"?>
<svg width="286.312" height="280.199" xmlns="http://www.w3.org/2000/svg" xmlns:xlink="http://www.w3.org/1999/xlink">
  <linearGradient id="a">
    <stop offset="0" stop-color="#fff"/>
    <stop offset=".859" stop-color="#fff" stop-opacity=".382"/>
    <stop offset="1" stop-color="#fff" stop-opacity=".28"/>
  </linearGradient>
  <radialGradient id="c" cx="75.646" cy="-73.819" r="26.568" gradientUnits="userSpaceOnUse" xlink:href="#a"/>
  <radialGradient id="d" cx="115.665" cy="-34.023" r="19.795" gradientUnits="userSpaceOnUse" xlink:href="#a"/>
  <radialGradient id="e" cx="191.015" cy="76.567" r="72.693" gradientUnits="userSpaceOnUse">
    <stop offset="0" stop-color="#fff" stop-opacity=".71"/>
    <stop offset=".296" stop-color="#fcfeff" stop-opacity=".713"/>
    <stop offset=".495" stop-color="#f3f9ff" stop-opacity=".715"/>
    <stop offset=".666" stop-color="#e4f2ff" stop-opacity=".717"/>
    <stop offset=".821" stop-color="#cfe7ff" stop-opacity=".718"/>
    <stop offset=".964" stop-color="#b3daff" stop-opacity=".72"/>
    <stop offset="1" stop-color="#abd6ff" stop-opacity=".72"/>
  </radialGradient>
  <linearGradient id="f" x1="86.786" x2="296.298" y1="64.37" y2="79.021" gradientUnits="userSpaceOnUse">
    <stop offset="0" stop-color="#8b8e90"/>
    <stop offset=".33" stop-color="#e0e0df"/>
    <stop offset="1" stop-color="#757777"/>
  </linearGradient>
  <linearGradient id="b">
    <stop offset="0" stop-color="#a7aaab"/>
    <stop offset=".24" stop-color="#fff"/>
    <stop offset=".37" stop-color="#efeeed"/>
    <stop offset=".45" stop-color="#8b8e90"/>
    <stop offset=".82" stop-color="#5a5d5e"/>
    <stop offset=".9" stop-color="#e0e0df"/>
    <stop offset="1" stop-color="#a7aaab"/>
  </linearGradient>
  <linearGradient id="g" x1="118.666" x2="130.631" y1="136.653" y2="147.811" gradientUnits="userSpaceOnUse" xlink:href="#b"/>
  <linearGradient id="h" x1="109.936" x2="125.53" y1="142.283" y2="156.825" gradientUnits="userSpaceOnUse" xlink:href="#b"/>
  <linearGradient id="i" x1="70.956" x2="57.319" y1="207.491" y2="194.322" gradientUnits="userSpaceOnUse">
    <stop offset="0"/>
    <stop offset=".201" stop-color="#5a5d5e"/>
    <stop offset=".48"/>
    <stop offset=".756" stop-color="#e0e0df"/>
    <stop offset="1"/>
  </linearGradient>
  <linearGradient id="j" x1="105.607" x2="126.122" y1="142.994" y2="162.125" gradientUnits="userSpaceOnUse">
    <stop offset="0" stop-color="#5a5d5e"/>
    <stop offset="1"/>
  </linearGradient>
  <linearGradient id="k" x1="128.497" x2="144.341" y1="122.77" y2="137.546" gradientUnits="userSpaceOnUse" xlink:href="#b"/>
  <linearGradient id="l" x1="131.006" x2="165.65" y1="45.424" y2="60.222" gradientUnits="userSpaceOnUse">
    <stop offset="0" stop-color="#fff" stop-opacity=".71"/>
    <stop offset=".875" stop-color="#fff" stop-opacity=".203"/>
    <stop offset="1" stop-color="#fff" stop-opacity=".13"/>
  </linearGradient>
  <radialGradient id="m" cx="203.886" cy="69.25" r="51.76" gradientTransform="matrix(-.6607 -.722 .7377 -.6751 297.22 275.368)" gradientUnits="userSpaceOnUse">
    <stop offset="0" stop-color="#fff"/>
    <stop offset=".865" stop-color="#fff" stop-opacity=".377"/>
    <stop offset="1" stop-color="#fff" stop-opacity=".28"/>
  </radialGradient>
  <circle cx="61.922" cy="-22.844" r="77.545" fill="none"/>
  <path fill="url(#c)" d="M103.101-59.045l7.091-6.568c-11.243-14.034-28.265-22.98-47.317-22.98a59.605 59.605 0 0 0-21.774 4.111 72.602 72.602 0 0 1 6.578-.316c22.072 0 41.874 9.967 55.422 25.753z"/>
  <path fill="url(#d)" d="M107.157-53.9c9.083 12.639 14.46 28.27 14.46 45.197 0 .452-.025.898-.033 1.35a64.759 64.759 0 0 0 2.589-18.155c0-13.028-3.84-25.133-10.415-35.184z"/>
  <path d="M155.551 61.318c-9.01 8.428-16.188 19.409-18.059 31.799-.295 1.951-.268 4.02-.254 5.993.136 16.979 7.535 32.671 19.772 44.26 12.777 12.098 29.821 18.817 47.478 19.042 17.385.221 34.315-5.873 47.006-17.759 12.122-11.348 19.084-26.901 18.952-43.576-.026-3.438-.173-7.023-.991-10.37-2.652-10.852-9.528-20.421-17.533-28.01-16.747-15.836-40.679-22.508-63.306-18-12.408 2.359-23.872 8.028-33.065 16.621zm-10.73-17.636c15.798-14.81 36.842-22.482 58.483-22.217h.032c21.816.277 42.864 8.598 58.672 23.55 12.274 11.625 20.619 26.579 23.58 42.972a75.376 75.376 0 0 1 1.201 13.708c-.054 12.124-3.634 23.725-8.737 34.585-4.763 10.296-10.674 19.678-19.146 27.371-8.352 7.602-18.016 13.107-28.309 16.546-19.612 6.55-41.347 5.601-60.48-2.438a85.001 85.001 0 0 1-8.157-3.416 38.218 38.218 0 0 1-3.105-1.675c-.234-.141-.493-.306-.728-.447-1.589-.957-3.331-1.812-4.859-2.883-.562-.395-1.188-.738-1.741-1.148l-.404.35c-1.841 1.594-4.395 2.479-6.649 2.3l-4.459 3.857-1.657 1.479a8.31 8.31 0 0 1-.886 3.339 9.486 9.486 0 0 1-2.209 2.823l-.396.35-1.234 2.895a9.28 9.28 0 0 1-1.079 2.265 7.903 7.903 0 0 1-1.441 1.65L29.68 277.205c-2.103 1.818-4.994 2.542-7.481 1.944-.281-.066-.587-.129-.866-.218a9.387 9.387 0 0 1-2.313-1.105c-3.88-2.571-6.686-5.26-9.51-8.675a40.263 40.263 0 0 1-1.46-1.912c-.015-.021-.029-.043-.045-.063l-.009-.012c-2.135-2.76-3.687-6.038-5.562-9.114-2.13-3.496-1.235-8.368 1.915-11.099l.07-.063 88.042-76.116.335-.286-.001-.002 4.734-3.926h.001l1.946-1.684c.04-.034 1.849-1.543 1.882-1.505l-.405-.554-1.859-2.769 12.062-3.174 2.214-.567.411-.402a8.323 8.323 0 0 1 2.797-1.762c1.145-.406 2.479-.673 3.669-.591l4.482-3.876c-.021-.026 1.62-1.49 1.601-1.517.087-2.342 1.042-4.631 2.83-6.314-.003-.005.305-.279.301-.284-7.13-13.439-9.622-28.567-8.677-43.871l.003-.029c1.273-20.541 8.872-39.769 24.034-53.977z" opacity=".001"/>
  <path d="M155.46 60.75c-9.166 8.521-16.41 19.659-18.324 32.234-.302 1.979-.289 4.07-.283 6.075.079 17.092 7.475 32.892 19.734 44.566 12.772 12.159 29.867 18.982 47.66 19.249 17.535.263 34.563-5.867 47.319-17.754 12.217-11.377 19.29-27.001 19.215-43.805-.013-3.489-.162-7.115-.971-10.509-2.624-11.016-9.486-20.751-17.577-28.472-16.544-15.711-40.183-22.488-62.698-18.26-12.806 2.189-24.641 7.916-34.075 16.676zm-10.24-16.81c15.723-14.675 36.676-22.313 58.273-22.005h.032c21.764.317 42.678 8.669 58.341 23.553 12.308 11.723 20.609 26.841 23.37 43.396.756 4.528 1.1 9.14 1.012 13.792-.244 12.181-4.036 23.782-9.406 34.542-4.894 10.095-10.945 19.253-19.472 26.717-8.381 7.366-18.045 12.665-28.323 15.904-19.593 6.173-41.098 4.884-59.91-3.346a84.85 84.85 0 0 1-8.041-2.974 24.106 24.106 0 0 1-3.091-1.601c-.221-.135-.493-.319-.716-.453-1.509-.909-3.357-1.555-4.809-2.572-.534-.375-1.199-.641-1.725-1.03l-.4.347c-1.75 1.514-4.415 2.561-6.557 2.391l-4.433 3.833-1.552 1.433c-.015 1.131-.319 2.273-.853 3.312-.493.96-1.323 2.011-2.189 2.761l-.374.336-1.229 2.88a9.65 9.65 0 0 1-1.068 2.255 7.438 7.438 0 0 1-1.394 1.613l-100.92 87.244c-1.999 1.729-5.02 2.652-7.383 2.085-.267-.063-.588-.102-.854-.181a8.63 8.63 0 0 1-2.302-1.058c-4.023-2.666-6.528-5.101-9.426-8.674-.513-.633-.953-1.307-1.38-1.921-.014-.021-.024-.044-.04-.063l-.008-.012c-2.028-2.621-3.112-6.07-4.893-8.992-2.023-3.321-.74-8.321 2.253-10.915l.068-.061 87.738-75.818c.011-.009.325-.277.337-.283l-.002-.004 4.777-3.796.001.001 1.94-1.678c.079-.068 1.86-1.498 1.927-1.421l-.361-.499-1.659-2.749 11.844-3.447 2.176-.601.365-.41a7.495 7.495 0 0 1 2.668-1.813c1.086-.386 2.485-.752 3.616-.675l4.466-3.858c-.041-.052 1.497-1.471 1.457-1.523.015-2.313.86-4.58 2.5-6.274-.007-.011.282-.276.275-.287-7.123-13.342-9.675-28.387-8.739-43.635l.002-.029c1.266-20.498 8.953-39.631 24.071-53.737z" opacity=".003"/>
  <path d="M155.369 60.182c-9.321 8.615-16.632 19.91-18.588 32.67-.309 2.005-.313 4.121-.313 6.158.021 17.203 7.415 33.111 19.695 44.872 12.77 12.221 29.914 19.146 47.844 19.456 17.686.306 34.811-5.861 47.634-17.75 12.312-11.404 19.495-27.101 19.478-44.032 0-3.541-.153-7.206-.952-10.646-2.595-11.181-9.442-21.083-17.62-28.936-16.342-15.586-39.686-22.468-62.092-18.519-13.206 2.016-25.411 7.801-35.086 16.727zM145.621 44.2c15.646-14.542 36.509-22.145 58.063-21.795h.032c21.71.359 42.49 8.742 58.01 23.556 12.341 11.822 20.601 27.104 23.161 43.821.701 4.57.979 9.21.82 13.877-.435 12.237-4.437 23.839-10.073 34.5-5.025 9.894-11.217 18.827-19.798 26.063-8.409 7.131-18.073 12.221-28.339 15.263-19.571 5.794-40.848 4.167-59.338-4.256a84.62 84.62 0 0 1-7.926-2.529 17.59 17.59 0 0 1-3.075-1.527c-.209-.13-.493-.332-.704-.46-1.43-.861-3.384-1.296-4.76-2.261-.505-.354-1.21-.543-1.708-.912l-.396.343c-1.657 1.435-4.435 2.644-6.464 2.482l-4.404 3.809-1.446 1.387c.021 1.114-.281 2.257-.819 3.282-.476.906-1.351 1.989-2.171 2.7l-.351.321-1.223 2.866c-.219.692-.657 1.645-1.059 2.245a6.948 6.948 0 0 1-1.346 1.575L29.896 275.331c-1.893 1.637-5.045 2.761-7.284 2.224-.252-.061-.587-.073-.841-.143-.766-.209-1.562-.527-2.291-1.011-4.166-2.76-6.374-4.938-9.342-8.671-.507-.638-.91-1.33-1.3-1.931-.013-.02-.021-.044-.035-.063l-.007-.012c-1.921-2.483-2.537-6.103-4.224-8.871-1.917-3.146-.244-8.274 2.591-10.731l.066-.06 87.435-75.519a8.85 8.85 0 0 1 .339-.281l-.003-.003 4.819-3.666.002.002 1.934-1.674c.118-.102 1.871-1.451 1.972-1.336l-.318-.444-1.459-2.73 11.627-3.719 2.136-.635.32-.418a6.761 6.761 0 0 1 2.538-1.866c1.029-.365 2.494-.831 3.565-.757l4.449-3.842c-.063-.078 1.372-1.451 1.313-1.53-.057-2.286.678-4.53 2.17-6.235-.01-.016.261-.273.251-.289-7.116-13.245-9.729-28.206-8.804-43.398l.003-.029c1.252-20.453 9.026-39.491 24.103-53.493z" opacity=".004"/>
  <path d="M155.278 59.613c-9.479 8.71-16.855 20.16-18.854 33.105-.314 2.032-.334 4.172-.343 6.241-.035 17.315 7.354 33.331 19.657 45.178 12.765 12.281 29.96 19.312 48.027 19.663 17.835.349 35.057-5.855 47.947-17.746 12.405-11.432 19.699-27.199 19.739-44.26.014-3.592-.143-7.298-.933-10.785-2.565-11.346-9.398-21.414-17.664-29.397-16.138-15.461-39.188-22.448-61.483-18.778-13.602 1.844-26.176 7.687-36.093 16.779zM146.02 44.46c15.571-14.408 36.342-21.976 57.853-21.585h.031c21.657.4 42.304 8.814 57.679 23.56 12.375 11.92 20.592 27.364 22.952 44.245.647 4.613.86 9.281.631 13.963-.626 12.293-4.839 23.896-10.741 34.456-5.157 9.692-11.488 18.401-20.124 25.408-8.438 6.896-18.103 11.778-28.354 14.622-19.55 5.416-40.599 3.449-58.767-5.165a85.291 85.291 0 0 1-7.811-2.086c-1.008-.317-2.073-.833-3.06-1.454-.196-.124-.493-.346-.692-.466-1.35-.813-3.41-1.039-4.709-1.95-.478-.335-1.221-.444-1.691-.793l-.394.339c-1.565 1.355-4.454 2.726-6.37 2.573l-4.378 3.784-1.34 1.34c.058 1.099-.243 2.239-.787 3.255-.456.852-1.376 1.966-2.151 2.638l-.328.308-1.216 2.853c-.206.653-.67 1.668-1.05 2.234a6.509 6.509 0 0 1-1.296 1.538l-99.902 86.317c-1.788 1.547-5.07 2.871-7.185 2.363-.239-.057-.588-.044-.829-.104-.755-.189-1.553-.482-2.28-.963-4.308-2.854-6.218-4.776-9.258-8.67-.501-.642-.858-1.354-1.22-1.94-.011-.018-.016-.044-.029-.062-.003-.003-.003-.008-.006-.011-1.815-2.346-1.962-6.135-3.556-8.749-1.81-2.972.252-8.228 2.93-10.549l.064-.058 87.131-75.221c.021-.019.316-.268.341-.278l-.005-.007 4.862-3.536.003.003 1.928-1.668c.157-.136 1.882-1.406 2.017-1.252l-.273-.391-1.259-2.711 11.41-3.99 2.098-.669.274-.426a6.06 6.06 0 0 1 2.408-1.918c.973-.346 2.502-.91 3.514-.841l4.433-3.824c-.083-.104 1.248-1.432 1.168-1.538-.127-2.257.497-4.479 1.841-6.194-.013-.021.238-.271.226-.292-7.109-13.148-9.782-28.024-8.867-43.162l.003-.029c1.236-20.405 9.099-39.349 24.131-53.247z" opacity=".006"/>
  <path d="M155.187 59.045c-9.635 8.804-17.078 20.411-19.119 33.541-.321 2.06-.355 4.223-.372 6.324-.093 17.428 7.294 33.551 19.619 45.483 12.761 12.343 30.006 19.476 48.21 19.87 17.985.392 35.304-5.85 48.261-17.742 12.501-11.46 19.905-27.299 20.003-44.487.026-3.644-.134-7.39-.914-10.923-2.536-11.511-9.355-21.746-17.707-29.861-15.936-15.335-38.691-22.428-60.877-19.037-14.002 1.673-26.946 7.574-37.104 16.832zm-8.768-14.325c15.496-14.275 36.176-21.807 57.643-21.375h.031v.001c21.604.441 42.116 8.887 57.348 23.563 12.408 12.018 20.582 27.626 22.743 44.67a73.82 73.82 0 0 1 .439 14.047c-.816 12.35-5.24 23.953-11.408 34.413-5.289 9.492-11.76 17.977-20.45 24.754-8.467 6.661-18.131 11.336-28.37 13.98-19.529 5.038-40.349 2.733-58.195-6.074a87.516 87.516 0 0 1-7.694-1.643c-.996-.259-2.069-.755-3.045-1.38-.185-.118-.492-.359-.68-.473-1.271-.766-3.437-.781-4.659-1.639-.449-.315-1.232-.347-1.676-.675l-.389.336c-1.474 1.275-4.475 2.808-6.278 2.664l-4.35 3.76-1.235 1.294c.096 1.083-.202 2.223-.753 3.227-.438.798-1.403 1.943-2.133 2.575l-.305.294-1.21 2.838c-.194.615-.683 1.692-1.04 2.226a6.106 6.106 0 0 1-1.248 1.5l-99.393 85.854c-1.683 1.455-5.096 2.98-7.086 2.503-.225-.054-.588-.017-.816-.067-.745-.168-1.545-.437-2.27-.916-4.45-2.948-6.062-4.614-9.173-8.668-.496-.646-.809-1.376-1.14-1.949-.01-.018-.012-.044-.024-.061-.002-.003-.002-.008-.005-.011-1.708-2.208-1.388-6.168-2.888-8.628-1.704-2.797.749-8.181 3.269-10.365l.062-.056 86.828-74.923c.027-.023.311-.262.342-.275l-.006-.009 4.905-3.405.003.003 1.921-1.662c.197-.17 1.893-1.36 2.062-1.168l-.229-.336-1.06-2.692L116 156.509l2.059-.702.229-.434a5.438 5.438 0 0 1 2.278-1.971c.916-.325 2.511-.988 3.463-.923l4.416-3.808c-.104-.13 1.124-1.412 1.023-1.545-.198-2.229.314-4.429 1.511-6.155-.016-.026.217-.268.2-.294-7.103-13.051-9.836-27.844-8.93-42.926l.002-.029c1.229-20.359 9.18-39.207 24.168-53.002z" opacity=".007"/>
  <path d="M155.096 58.476c-9.791 8.898-17.301 20.663-19.385 33.978-.327 2.087-.377 4.273-.401 6.406-.149 17.541 7.233 33.771 19.581 45.79 12.757 12.404 30.052 19.64 48.393 20.077 18.136.434 35.552-5.845 48.575-17.737 12.595-11.488 20.11-27.399 20.266-44.716.039-3.694-.124-7.481-.895-11.061-2.509-11.676-9.313-22.077-17.751-30.325-15.733-15.209-38.194-22.408-60.27-19.297-14.4 1.502-27.714 7.462-38.113 16.885zm-8.277-13.497c15.422-14.142 36.01-21.637 57.433-21.163h.031c21.551.483 41.93 8.959 57.017 23.566 12.442 12.115 20.572 27.888 22.533 45.094.538 4.696.621 9.421.249 14.132-1.006 12.406-5.642 24.011-12.076 34.37-5.419 9.292-12.031 17.552-20.776 24.1-8.494 6.427-18.159 10.894-28.384 13.34-19.509 4.659-40.1 2.017-57.625-6.983a89.693 89.693 0 0 1-7.578-1.199c-.986-.198-2.063-.678-3.03-1.307-.171-.111-.491-.373-.667-.479-1.191-.718-3.464-.524-4.609-1.328-.422-.296-1.244-.249-1.659-.557l-.386.333c-1.381 1.195-4.494 2.89-6.185 2.756l-4.323 3.733-1.129 1.248c.132 1.067-.164 2.206-.721 3.199-.417.743-1.429 1.921-2.112 2.513l-.283.281-1.204 2.823c-.182.577-.694 1.715-1.029 2.215a5.73 5.73 0 0 1-1.2 1.464l-98.883 85.391c-1.578 1.364-5.122 3.09-6.987 2.642-.211-.05-.589.014-.805-.029-.737-.146-1.536-.391-2.258-.868-4.592-3.044-5.908-4.451-9.089-8.667-.49-.65-.876-1.345-1.06-1.958-.012-.016-.007-.045-.019-.06l-.004-.012c-1.601-2.069-.813-6.199-2.219-8.506-1.597-2.622 1.244-8.134 3.607-10.182l.06-.054 86.524-74.625c.032-.027.307-.256.344-.273l-.007-.01 4.948-3.275.004.004 1.915-1.656c.235-.204 1.904-1.314 2.106-1.084l-.186-.281-.859-2.673 10.976-4.535 2.021-.736.184-.442a4.87 4.87 0 0 1 2.148-2.021c.857-.305 2.518-1.067 3.411-1.007l4.398-3.79c-.124-.156 1-1.393.88-1.552-.271-2.201.132-4.379 1.181-6.115-.02-.032.194-.265.175-.297-7.096-12.954-9.89-27.663-8.993-42.689l.002-.028v-.001c1.213-20.317 9.254-39.069 24.198-52.762z" opacity=".009"/>
  <path d="M155.004 57.907c-9.946 8.992-17.522 20.913-19.649 34.413-.333 2.114-.399 4.324-.431 6.489-.207 17.652 7.174 33.99 19.543 46.096 12.752 12.466 30.098 19.805 48.575 20.284 18.286.477 35.799-5.839 48.89-17.733 12.689-11.516 20.315-27.498 20.527-44.943.053-3.746-.114-7.572-.875-11.199-2.479-11.84-9.269-22.408-17.794-30.787-15.53-15.084-37.698-22.389-59.663-19.557-14.798 1.331-28.482 7.348-39.123 16.937zm-7.785-12.669c15.346-14.008 35.843-21.468 57.222-20.953h.031c21.497.524 41.742 9.032 56.686 23.569 12.476 12.215 20.563 28.15 22.324 45.519.483 4.738.501 9.492.059 14.217-1.197 12.463-6.044 24.067-12.744 34.327-5.551 9.091-12.303 17.127-21.103 23.445-8.523 6.191-18.188 10.45-28.399 12.699-19.487 4.281-39.85 1.299-57.054-7.894a90.999 90.999 0 0 1-7.462-.755c-.977-.138-2.059-.603-3.015-1.233-.159-.105-.492-.386-.656-.485-1.111-.67-3.489-.267-4.559-1.017-.394-.275-1.256-.151-1.644-.438l-.382.329c-1.289 1.116-4.514 2.973-6.092 2.848l-4.295 3.709-1.023 1.202c.168 1.051-.125 2.188-.688 3.171-.396.69-1.456 1.897-2.094 2.45l-.26.268-1.198 2.81c-.17.538-.707 1.738-1.02 2.205a5.376 5.376 0 0 1-1.152 1.426l-98.374 84.927c-1.472 1.273-5.147 3.199-6.889 2.781-.196-.047-.59.043-.792.009-.73-.125-1.528-.346-2.247-.821-4.735-3.138-5.756-4.285-9.005-8.664-.485-.654-.849-1.36-.979-1.968-.011-.015-.003-.045-.014-.06-.002-.002-.001-.008-.003-.011-1.494-1.932-.238-6.231-1.55-8.385-1.491-2.447 1.74-8.087 3.945-9.998l.058-.052 86.22-74.326c.038-.033.302-.252.346-.271l-.008-.012 4.991-3.145.005.004 1.909-1.65c.275-.238 1.915-1.27 2.151-1l-.142-.227-.659-2.654 10.759-4.807 1.98-.771.139-.45c.349-.784 1.047-1.588 2.019-2.074.801-.284 2.526-1.146 3.359-1.089l4.383-3.773c-.146-.183.875-1.373.735-1.559-.342-2.174-.05-4.329.851-6.076-.022-.037.173-.262.15-.299-7.089-12.857-9.943-27.482-9.058-42.453a.284.284 0 0 0 .002-.028v-.001c1.207-20.269 9.334-38.926 24.236-52.516z" opacity=".01"/>
  <path d="M154.914 57.339C144.811 66.425 137.168 78.503 135 92.188c-.341 2.141-.422 4.375-.461 6.572-.264 17.765 7.113 34.21 19.504 46.401 12.749 12.527 30.145 19.969 48.759 20.491 18.437.52 36.046-5.833 49.203-17.729 12.784-11.544 20.521-27.598 20.791-45.171.065-3.797-.104-7.664-.856-11.337-2.45-12.005-9.226-22.74-17.837-31.251-15.328-14.959-37.201-22.368-59.056-19.815-15.198 1.159-29.252 7.235-40.133 16.99zm-7.295-11.841c15.271-13.875 35.677-21.3 57.012-20.743h.031v.001c21.444.565 41.555 9.104 56.354 23.572 12.509 12.313 20.554 28.412 22.115 45.943a72.528 72.528 0 0 1-.133 14.301c-1.388 12.52-6.444 24.125-13.411 34.285-5.683 8.89-12.574 16.701-21.429 22.791-8.552 5.956-18.216 10.007-28.415 12.057-19.467 3.903-39.6.583-56.481-8.802a93.025 93.025 0 0 1-7.347-.313c-.966-.077-2.054-.523-3-1.159-.147-.099-.491-.399-.644-.491-1.032-.622-3.516-.009-4.51-.706-.364-.256-1.267-.054-1.626-.32l-.378.326c-1.197 1.036-4.534 3.055-6 2.938l-4.268 3.685-.918 1.155c.206 1.036-.086 2.17-.654 3.143-.373.639-1.482 1.876-2.074 2.39l-.237.253-1.191 2.795c-.158.5-.72 1.763-1.01 2.196a4.965 4.965 0 0 1-1.104 1.388l-97.864 84.464c-1.367 1.183-5.173 3.309-6.79 2.921-.183-.044-.6.107-.78.046-.732.031-1.52-.3-2.236-.774-4.877-3.231-5.606-4.118-8.921-8.662-.48-.658-.821-1.375-.899-1.977-.01-.014.001-.045-.009-.059-.002-.003 0-.009-.002-.011-1.388-1.794.337-6.265-.881-8.264-1.384-2.272 2.236-8.04 4.284-9.814l.056-.051 85.917-74.027c.043-.037.297-.246.347-.269l-.009-.013 5.034-3.016.006.006 1.902-1.646c.314-.271 1.927-1.223 2.196-.915l-.098-.172-.46-2.636 10.542-5.079 1.942-.804.093-.458c.271-.786.928-1.623 1.889-2.126.744-.265 2.535-1.226 3.309-1.172l4.366-3.757c-.167-.208.751-1.354.591-1.565-.413-2.146-.232-4.278.521-6.037-.025-.042.15-.259.125-.301-7.082-12.76-9.997-27.302-9.12-42.217l.002-.028c1.19-20.223 9.406-38.786 24.265-52.272z" opacity=".011"/>
  <path d="M154.823 56.771c-10.259 9.18-17.968 21.415-20.18 35.284-.347 2.168-.443 4.426-.49 6.654-.321 17.878 7.053 34.431 19.466 46.708 12.745 12.589 30.19 20.133 48.941 20.698 18.587.562 36.294-5.827 49.518-17.725 12.879-11.572 20.727-27.698 21.054-45.399.078-3.849-.096-7.756-.837-11.475-2.422-12.17-9.183-23.071-17.881-31.715-15.126-14.833-36.704-22.348-58.449-20.074-15.596.989-30.019 7.123-41.142 17.044zm-6.805-11.014c15.195-13.741 35.511-21.13 56.802-20.531h.031c21.391.607 41.368 9.177 56.023 23.576 12.542 12.41 20.544 28.674 21.905 46.367a72.056 72.056 0 0 1-.323 14.386c-1.577 12.576-6.846 24.183-14.079 34.242-5.813 8.689-12.846 16.276-21.754 22.137-8.58 5.722-18.245 9.564-28.43 11.416-19.446 3.524-39.351-.134-55.911-9.712-2.389.14-4.801.175-7.23.132-.956-.017-2.049-.444-2.985-1.086-.135-.093-.49-.413-.631-.498-.953-.574-3.543.249-4.46-.395-.337-.236-1.278.044-1.61-.202l-.374.323c-1.104.956-4.554 3.137-5.906 3.029l-4.24 3.66-.813 1.109c.242 1.02-.046 2.151-.621 3.114-.35.586-1.509 1.854-2.056 2.327l-.214.239-1.187 2.781c-.146.462-.731 1.785-.999 2.186a4.621 4.621 0 0 1-1.057 1.351L30.545 269.71c-1.262 1.091-5.198 3.418-6.691 3.06-.168-.04-.602.141-.768.084-.723.07-1.512-.254-2.226-.727-5.02-3.326-5.453-3.954-8.836-8.661-.475-.661-.794-1.389-.819-1.985-.009-.013.005-.046-.004-.058-.002-.003 0-.009-.001-.012-1.281-1.655.912-6.296-.212-8.142-1.278-2.098 2.732-7.993 4.622-9.631l.054-.049 85.613-73.729c.048-.042.293-.24.349-.266l-.011-.015 5.077-2.885.006.006 1.896-1.641c.354-.306 1.938-1.177 2.242-.831l-.055-.117-.26-2.616 10.325-5.352 1.903-.838.047-.466c.195-.788.809-1.659 1.76-2.179.686-.243 2.542-1.304 3.257-1.255l4.349-3.739c-.187-.234.627-1.334.447-1.572-.485-2.118-.415-4.229.19-5.997-.029-.048.129-.256.1-.304-7.075-12.663-10.051-27.121-9.184-41.98l.002-.028v-.001c1.183-20.177 9.487-38.643 24.301-52.027z" opacity=".013"/>
  <path d="M154.732 56.202c-10.415 9.273-18.19 21.665-20.445 35.72-.353 2.195-.465 4.477-.52 6.737-.378 17.99 6.992 34.65 19.428 47.014 12.74 12.65 30.236 20.298 49.124 20.905 18.737.604 36.541-5.821 49.832-17.721 12.973-11.6 20.932-27.797 21.315-45.627.092-3.899-.085-7.848-.817-11.613-2.393-12.334-9.139-23.402-17.924-32.177-14.923-14.708-36.208-22.328-57.842-20.334-15.994.817-30.787 7.009-42.151 17.096zm-6.315-10.185c15.12-13.607 35.345-20.961 56.592-20.321h.031c21.337.648 41.181 9.249 55.692 23.58 12.575 12.508 20.534 28.936 21.696 46.791a71.664 71.664 0 0 1-.514 14.471c-1.769 12.633-7.248 24.24-14.747 34.199-5.945 8.488-13.117 15.852-22.08 21.482-8.609 5.486-18.273 9.122-28.445 10.775-19.425 3.146-39.101-.852-55.34-10.621-2.341.28-4.714.465-7.114.575-.945.044-2.045-.366-2.971-1.013-.123-.086-.49-.427-.619-.504-.873-.526-3.568.506-4.409-.084-.309-.217-1.29.142-1.594-.084l-.371.32c-1.013.876-4.573 3.219-5.813 3.12l-4.213 3.636-.706 1.063c.278 1.004-.007 2.133-.589 3.087-.326.534-1.535 1.83-2.036 2.265l-.191.226-1.18 2.768c-.134.423-.744 1.809-.989 2.176a4.294 4.294 0 0 1-1.009 1.313l-96.846 83.537c-1.157 1.001-5.224 3.528-6.592 3.199-.155-.036-.604.174-.755.122-.714.108-1.503-.209-2.215-.68-5.162-3.42-5.303-3.786-8.752-8.659-.47-.665-.767-1.403-.739-1.994-.008-.012.01-.046.001-.058v-.011c-1.174-1.518 1.487-6.328.456-8.021-1.171-1.923 3.228-7.946 4.96-9.447l.052-.047 85.309-73.432c.054-.046.289-.234.351-.263l-.012-.017 5.12-2.755.007.007 1.89-1.635c.394-.34 1.949-1.132 2.287-.747l-.011-.063-.06-2.598 10.107-5.623 1.865-.872.001-.474c.118-.791.689-1.695 1.63-2.23.629-.224 2.551-1.383 3.205-1.338l4.333-3.723c-.208-.261.502-1.314.303-1.579-.557-2.091-.597-4.179-.14-5.958-.032-.053.106-.253.074-.306-7.068-12.566-10.104-26.94-9.247-41.744l.002-.028v-.001c1.172-20.13 9.565-38.502 24.335-51.782z" opacity=".014"/>
  <path d="M154.64 55.634c-10.571 9.368-18.413 21.916-20.71 36.155-.359 2.223-.487 4.528-.55 6.82-.435 18.102 6.934 34.87 19.391 47.318 12.736 12.712 30.283 20.463 49.308 21.113 18.886.647 36.787-5.815 50.145-17.717 13.068-11.628 21.137-27.896 21.579-45.854.104-3.952-.076-7.939-.799-11.752-2.363-12.5-9.096-23.734-17.968-32.641-14.72-14.582-35.71-22.308-57.234-20.593-16.393.648-31.555 6.899-43.162 17.151zm-5.822-9.358c15.044-13.475 35.177-20.792 56.381-20.111h.03v.001c21.285.689 40.994 9.321 55.361 23.582 12.609 12.607 20.526 29.197 21.487 47.217a71.212 71.212 0 0 1-.704 14.556c-1.959 12.689-7.649 24.296-15.414 34.155-6.077 8.288-13.389 15.426-22.406 20.828-8.638 5.252-18.303 8.679-28.461 10.134-19.404 2.769-38.852-1.567-54.769-11.53-2.293.423-4.629.753-6.999 1.019-.934.104-2.036-.289-2.954-.938-.112-.079-.49-.439-.607-.511-.795-.479-3.596.764-4.359.229-.281-.197-1.301.239-1.578.034l-.366.315c-.921.798-4.594 3.301-5.721 3.212l-4.186 3.611-.602 1.017c.316.988.035 2.114-.555 3.059-.301.481-1.562 1.808-2.018 2.202l-.168.212-1.174 2.753c-.121.385-.757 1.833-.98 2.166a3.954 3.954 0 0 1-.959 1.275L30.76 267.837c-1.052.909-5.25 3.637-6.494 3.339-.14-.034-.604.207-.743.159-.705.147-1.496-.163-2.204-.632-5.304-3.515-5.155-3.62-8.668-8.657-.466-.668-.74-1.419-.658-2.005-.008-.01.014-.046.006-.056-.002-.002.002-.009 0-.011-1.067-1.38 2.062-6.361 1.125-7.898-1.065-1.748 3.724-7.899 5.299-9.266l.05-.044 85.006-73.133c.06-.052.284-.23.353-.261l-.014-.019 5.163-2.624.008.007 1.883-1.629c.433-.375 1.961-1.086 2.332-.663l.033-.009.141-2.578 9.891-5.896 1.825-.905-.044-.481c.041-.793.569-1.731 1.5-2.283.572-.203 2.559-1.462 3.154-1.421l4.315-3.706c-.229-.285.379-1.293.158-1.586-.627-2.062-.778-4.127-.468-5.917-.036-.058.084-.25.049-.308-7.062-12.47-10.158-26.76-9.311-41.509l.001-.028c1.162-20.087 9.641-38.364 24.37-51.541z" opacity=".016"/>
  <path d="M154.549 55.065c-10.728 9.462-18.636 22.166-20.976 36.591-.365 2.25-.509 4.579-.579 6.903-.491 18.214 6.873 35.09 19.353 47.624 12.731 12.773 30.329 20.628 49.49 21.32 19.036.69 37.034-5.81 50.459-17.713 13.162-11.655 21.342-27.995 21.841-46.081.118-4.003-.065-8.031-.779-11.891-2.334-12.664-9.052-24.065-18.011-33.103-14.517-14.457-35.214-22.288-56.627-20.853-16.791.476-32.323 6.785-44.171 17.203zm-5.332-8.529c14.969-13.341 35.011-20.623 56.171-19.901h.03v.001c21.231.73 40.807 9.394 55.03 23.586 12.643 12.705 20.517 29.459 21.278 47.641a70.83 70.83 0 0 1-.895 14.641c-2.15 12.746-8.052 24.354-16.082 34.112-6.209 8.087-13.66 15.001-22.732 20.174-8.667 5.017-18.331 8.236-28.477 9.493-19.383 2.391-38.602-2.285-54.197-12.439a103.425 103.425 0 0 1-6.883 1.462c-.924.166-2.031-.211-2.939-.865-.101-.072-.49-.453-.596-.517-.715-.431-3.621 1.021-4.309.539-.253-.178-1.313.337-1.562.152l-.363.313c-.829.718-4.613 3.383-5.628 3.303l-4.158 3.587-.495.97c.353.973.074 2.096-.522 3.031-.275.432-1.588 1.784-1.998 2.14l-.146.198-1.167 2.739c-.109.346-.77 1.856-.971 2.156a3.647 3.647 0 0 1-.911 1.237l-95.828 82.61c-.946.819-5.275 3.747-6.395 3.479-.126-.03-.606.24-.73.197-.696.186-1.487-.118-2.193-.585-5.446-3.608-5.008-3.451-8.583-8.655-.461-.672-.713-1.434-.578-2.014-.007-.009.018-.046.011-.056-.001-.001.003-.009.002-.01-.961-1.242 2.637-6.394 1.793-7.777-.958-1.573 4.22-7.853 5.637-9.082l.048-.042 84.703-72.835c.064-.056.279-.225.354-.258l-.015-.021 5.206-2.494.008.008 1.877-1.623c.473-.409 1.972-1.041 2.377-.579l.077.046.34-2.56 9.674-6.167 1.787-.939-.09-.489c-.036-.796.45-1.768 1.37-2.335.516-.184 2.567-1.541 3.103-1.504l4.3-3.689c-.25-.312.254-1.273.014-1.593-.698-2.034-.96-4.077-.798-5.878-.039-.063.062-.247.023-.31-7.055-12.373-10.211-26.579-9.374-41.272l.001-.028c1.148-20.042 9.717-38.225 24.401-51.298z" opacity=".017"/>
  <path d="M154.458 54.497c-10.884 9.556-18.858 22.417-21.241 37.026-.371 2.277-.53 4.63-.608 6.985-.549 18.327 6.813 35.311 19.314 47.931 12.728 12.835 30.375 20.792 49.673 21.527 19.187.732 37.282-5.804 50.773-17.708 13.257-11.684 21.547-28.096 22.104-46.31.131-4.055-.057-8.123-.76-12.028-2.306-12.829-9.009-24.396-18.055-33.566-14.314-14.331-34.717-22.268-56.021-21.111-17.188.303-33.09 6.67-45.179 17.254zm-4.841-7.702c14.894-13.207 34.845-20.453 55.961-19.689h.03c21.178.772 40.62 9.467 54.699 23.59 12.676 12.803 20.507 29.721 21.068 48.064a70.396 70.396 0 0 1-1.085 14.726c-2.34 12.803-8.453 24.411-16.75 34.069-6.34 7.887-13.932 14.576-23.058 19.52-8.695 4.782-18.36 7.794-28.491 8.853-19.362 2.012-38.353-3.002-53.627-13.35a103.688 103.688 0 0 1-6.767 1.906c-.914.227-2.026-.13-2.925-.792-.088-.064-.489-.467-.583-.523-.636-.383-3.648 1.278-4.259.851-.226-.158-1.324.435-1.546.271l-.359.31c-.736.638-4.633 3.465-5.534 3.394l-4.131 3.563-.39.924c.389.956.115 2.077-.489 3.003-.248.381-1.614 1.762-1.979 2.077l-.122.185-1.162 2.726c-.097.308-.781 1.879-.96 2.146-.202.459-.491.88-.863 1.2l-95.318 82.147c-.841.728-5.3 3.856-6.295 3.617-.112-.026-.608.273-.718.235-.688.225-1.479-.072-2.182-.537-5.589-3.703-4.858-3.284-8.499-8.654-.458-.675-.686-1.447-.498-2.022-.006-.008.022-.047.016-.055-.001-.001.004-.009.002-.011-.854-1.104 3.212-6.425 2.462-7.655-.852-1.398 4.716-7.806 5.976-8.898l.046-.04 84.398-72.537c.07-.061.274-.219.355-.255l-.016-.022 5.249-2.363.009.008 1.87-1.617c.512-.443 1.983-.995 2.422-.495l.121.101.54-2.54 9.457-6.439 1.748-.974-.136-.497c-.112-.798.331-1.804 1.241-2.388.457-.162 2.574-1.619 3.051-1.587l4.282-3.672c-.27-.338.13-1.254-.13-1.6-.771-2.006-1.143-4.027-1.128-5.838-.043-.068.04-.244-.002-.313-7.048-12.276-10.265-26.398-9.438-41.036l.001-.028c1.139-20.001 9.795-38.088 24.436-51.059z" opacity=".019"/>
  <path d="M154.368 53.929c-11.04 9.649-19.081 22.668-21.506 37.462-.379 2.304-.553 4.681-.639 7.068-.605 18.439 6.752 35.53 19.275 48.236 12.725 12.896 30.422 20.956 49.856 21.734 19.337.775 37.529-5.798 51.087-17.704 13.352-11.712 21.753-28.195 22.367-46.537.144-4.105-.047-8.215-.741-12.166-2.276-12.994-8.966-24.729-18.098-34.03-14.112-14.206-34.22-22.247-55.413-21.37-17.587.131-33.858 6.557-46.188 17.307zm-4.352-6.874c14.818-13.074 34.679-20.285 55.751-19.479h.03v.001c21.125.813 40.433 9.538 54.368 23.593 12.709 12.9 20.497 29.982 20.859 48.489a70.038 70.038 0 0 1-1.276 14.81c-2.53 12.859-8.854 24.469-17.417 34.027-6.472 7.686-14.203 14.15-23.384 18.865-8.724 4.547-18.389 7.351-28.507 8.21-19.342 1.634-38.103-3.718-53.055-14.258a105.62 105.62 0 0 1-6.651 2.349c-.903.287-2.021-.051-2.91-.718-.076-.058-.488-.48-.57-.529-.557-.335-3.675 1.536-4.21 1.161-.196-.139-1.335.532-1.528.389l-.355.307c-.645.558-4.653 3.547-5.442 3.484l-4.104 3.538-.284.877c.427.941.154 2.057-.456 2.975-.221.331-1.641 1.74-1.96 2.017l-.1.17-1.155 2.711c-.085.27-.794 1.903-.95 2.137a3.104 3.104 0 0 1-.815 1.162l-94.809 81.685c-.736.637-5.326 3.966-6.197 3.757-.099-.023-.609.306-.706.272-.678.263-1.471-.026-2.171-.49-5.731-3.797-4.715-3.112-8.415-8.652-.453-.678-.659-1.462-.417-2.031-.006-.007.026-.047.021-.054-.001-.002.005-.01.004-.011-.748-.966 3.787-6.458 3.13-7.534-.746-1.224 5.211-7.759 6.314-8.715l.044-.039 84.095-72.238c.075-.064.27-.213.357-.252l-.018-.023 5.292-2.234.009.01 1.864-1.613c.551-.477 1.994-.948 2.467-.41l.166.155.739-2.521 9.239-6.712 1.71-1.007-.182-.505c-.189-.8.212-1.839 1.111-2.439.4-.143 2.583-1.698 3-1.67l4.266-3.655c-.291-.363.006-1.234-.274-1.606-.842-1.979-1.325-3.977-1.458-5.799-.046-.073.018-.241-.027-.314-7.041-12.179-10.318-26.218-9.5-40.8l.001-.028c1.124-19.956 9.869-37.948 24.466-50.815z" opacity=".02"/>
  <path d="M154.276 53.36c-11.195 9.743-19.303 22.918-21.771 37.897-.385 2.331-.575 4.731-.668 7.151-.663 18.551 6.692 35.75 19.237 48.542 12.72 12.958 30.468 21.121 50.039 21.941 19.487.818 37.776-5.792 51.401-17.7 13.446-11.739 21.958-28.294 22.629-46.765.157-4.157-.037-8.306-.722-12.305-2.247-13.158-8.922-25.06-18.141-34.492-13.909-14.081-33.724-22.228-54.807-21.63-17.984-.038-34.625 6.445-47.197 17.361zm-3.859-6.046c14.742-12.94 34.512-20.116 55.54-19.27h.03v.001c21.071.854 40.245 9.611 54.037 23.596 12.742 13 20.488 30.245 20.65 48.914a69.683 69.683 0 0 1-1.467 14.895c-2.722 12.916-9.256 24.525-18.085 33.984-6.604 7.484-14.475 13.726-23.71 18.211-8.753 4.312-18.417 6.907-28.522 7.569-19.32 1.256-37.853-4.436-52.483-15.168a105.958 105.958 0 0 1-6.535 2.793c-.893.349-2.013.025-2.895-.645-.065-.05-.489-.493-.56-.536-.477-.287-3.7 1.794-4.159 1.473-.168-.118-1.347.63-1.513.507l-.352.303c-.553.479-4.673 3.63-5.35 3.576l-4.075 3.514-.179.831c.463.925.195 2.036-.423 2.946-.191.282-1.668 1.717-1.941 1.954l-.076.156-1.149 2.697c-.073.23-.807 1.927-.94 2.127a2.826 2.826 0 0 1-.768 1.124l-94.299 81.221c-.631.546-5.352 4.075-6.098 3.896-.084-.021-.611.339-.693.311-.669.302-1.463.019-2.16-.443-5.874-3.891-4.572-2.941-8.331-8.649-.449-.682-.631-1.478-.337-2.041-.005-.006.031-.047.026-.054-.001-.001.006-.009.005-.01-.641-.828 4.362-6.49 3.799-7.413-.639-1.049 5.708-7.712 6.652-8.531l.042-.037 83.791-71.939c.081-.07.266-.209.359-.25l-.019-.025 5.335-2.104.01.01 1.857-1.607c.591-.511 2.006-.903 2.512-.326l.21.21.939-2.503 9.022-6.983 1.67-1.041-.227-.513c-.267-.803.093-1.875.981-2.492.344-.122 2.592-1.777 2.948-1.752l4.25-3.639c-.313-.39-.119-1.215-.419-1.613-.913-1.951-1.507-3.927-1.788-5.76-.049-.078-.004-.238-.052-.316-7.034-12.082-10.372-26.037-9.564-40.563l.001-.028c1.116-19.906 9.948-37.804 24.503-50.568z" opacity=".021"/>
  <path d="M154.185 52.791c-11.352 9.838-19.525 23.17-22.036 38.334-.391 2.358-.597 4.782-.697 7.233-.72 18.664 6.632 35.97 19.199 48.849 12.716 13.02 30.514 21.285 50.222 22.148 19.638.86 38.024-5.787 51.716-17.695 13.54-11.768 22.163-28.395 22.892-46.993.17-4.208-.027-8.397-.702-12.442-2.22-13.323-8.879-25.391-18.185-34.956-13.707-13.955-33.227-22.208-54.199-21.89-18.386-.211-35.397 6.331-48.21 17.412zm-3.369-5.218c14.668-12.807 34.346-19.946 55.33-19.058h.03c21.018.896 40.059 9.684 53.706 23.6 12.776 13.098 20.479 30.507 20.44 49.338a69.272 69.272 0 0 1-1.657 14.979c-2.911 12.973-9.657 24.583-18.753 33.941-6.733 7.284-14.746 13.301-24.036 17.557-8.78 4.077-18.445 6.465-28.536 6.929-19.3.877-37.604-5.152-51.913-16.077a102.794 102.794 0 0 1-6.419 3.236c-.882.411-2.005.102-2.88-.571-.054-.041-.488-.507-.547-.542-.397-.239-3.728 2.051-4.109 1.783-.141-.099-1.358.728-1.496.625l-.349.3c-.46.398-4.692 3.712-5.256 3.668l-4.049 3.487-.072.785c.499.909.235 2.017-.391 2.919-.162.233-1.693 1.694-1.921 1.892l-.055.144-1.144 2.683c-.061.192-.818 1.949-.93 2.116-.153.421-.394.808-.72 1.088l-93.79 80.757c-.526.455-5.377 4.185-5.999 4.035-.07-.017-.612.372-.682.349-.66.34-1.454.064-2.149-.396-6.016-3.986-4.428-2.771-8.247-8.648-.445-.685-.604-1.491-.257-2.05-.004-.006.035-.048.031-.053-.001-.001.006-.01.006-.011-.534-.689 4.936-6.521 4.468-7.291-.533-.874 6.203-7.665 6.991-8.348l.041-.035 83.488-71.642c.086-.074.261-.203.36-.248l-.02-.026 5.377-1.974.011.011 1.853-1.602c.629-.545 2.016-.857 2.556-.242l.254.265 1.139-2.483 8.806-7.256 1.632-1.075-.271-.521c-.344-.804-.027-1.91.852-2.543.285-.102 2.599-1.856 2.896-1.836l4.232-3.621c-.332-.416-.243-1.195-.563-1.62a25.189 25.189 0 0 1-2.118-5.72c-.053-.084-.026-.235-.077-.319-7.027-11.985-10.426-25.856-9.628-40.327l.001-.027v-.001c1.102-19.861 10.023-37.662 24.534-50.324z" opacity=".023"/>
  <path d="M154.094 52.223c-11.508 9.932-19.748 23.421-22.302 38.77-.397 2.386-.618 4.833-.727 7.316-.777 18.776 6.571 36.189 19.161 49.154 12.712 13.081 30.56 21.449 50.404 22.355 19.788.903 38.271-5.781 52.029-17.691 13.636-11.796 22.369-28.494 23.155-47.221.183-4.26-.019-8.489-.684-12.58-2.19-13.488-8.836-25.723-18.228-35.42-13.505-13.829-32.729-22.188-53.593-22.148-18.78-.382-36.161 6.218-49.215 17.465zm-2.879-4.39c14.593-12.674 34.18-19.777 55.12-18.848h.03v.001c20.965.938 39.871 9.756 53.375 23.603 12.81 13.195 20.469 30.769 20.231 49.763a68.891 68.891 0 0 1-1.849 15.063c-3.102 13.029-10.059 24.641-19.42 33.898-6.865 7.084-15.018 12.876-24.362 16.902-8.809 3.843-18.474 6.022-28.552 6.287-19.279.499-37.354-5.868-51.342-16.986a103.034 103.034 0 0 1-6.303 3.68c-.871.473-1.998.182-2.865-.497-.043-.033-.487-.521-.534-.549-.318-.191-3.754 2.309-4.06 2.095-.112-.079-1.37.825-1.48.743l-.344.297c-.368.318-4.713 3.794-5.164 3.759l-4.021 3.463.032.739c.537.894.278 1.997-.356 2.891-.132.186-1.721 1.672-1.902 1.829l-.031.13-1.138 2.668c-.049.154-.831 1.974-.92 2.107-.137.407-.361.783-.672 1.05l-93.28 80.294c-.421.363-5.403 4.294-5.9 4.175-.056-.014-.614.404-.669.386-.651.379-1.446.11-2.138-.349-6.158-4.08-4.284-2.601-8.162-8.646-.441-.688-.578-1.506-.177-2.059-.003-.005.04-.048.036-.052l.007-.011c-.427-.552 5.511-6.555 5.137-7.17-.426-.699 6.699-7.618 7.329-8.164l.039-.033 83.184-71.344c.092-.079.257-.197.362-.245l-.021-.028 5.42-1.843.012.011 1.846-1.596c.668-.579 2.027-.812 2.602-.158l.297.319 1.339-2.465 8.589-7.528 1.593-1.108-.317-.529c-.421-.806-.146-1.946.722-2.596.229-.081 2.607-1.935 2.846-1.918l4.216-3.604c-.354-.441-.367-1.176-.707-1.627a30.034 30.034 0 0 1-2.448-5.681c-.056-.089-.048-.232-.103-.321-7.021-11.888-10.479-25.676-9.69-40.091v-.028c1.088-19.814 10.097-37.52 24.563-50.079z" opacity=".024"/>
  <path d="M154.003 51.654c-11.665 10.026-19.972 23.671-22.567 39.205-.403 2.413-.64 4.884-.756 7.399-.834 18.889 6.511 36.409 19.123 49.46 12.707 13.142 30.605 21.614 50.588 22.563 19.938.946 38.518-5.775 52.343-17.688 13.729-11.823 22.573-28.593 23.417-47.448.196-4.311-.008-8.581-.664-12.719-2.161-13.653-8.792-26.054-18.271-35.882-13.301-13.704-32.232-22.168-52.984-22.408-19.183-.553-36.934 6.105-50.229 17.518zm-2.388-3.561c14.518-12.54 34.013-19.608 54.91-18.638h.029v.001c20.912.979 39.685 9.828 53.044 23.606 12.844 13.293 20.46 31.029 20.022 50.187a68.58 68.58 0 0 1-2.038 15.149c-3.293 13.085-10.461 24.697-20.088 33.854-6.997 6.883-15.289 12.45-24.688 16.248-8.838 3.607-18.503 5.58-28.567 5.646-19.258.121-37.104-6.586-50.771-17.896a102.9 102.9 0 0 1-6.188 4.123c-.859.533-1.99.261-2.85-.424-.032-.025-.487-.534-.522-.555-.238-.144-3.78 2.565-4.009 2.405-.085-.06-1.381.924-1.464.862l-.341.293c-.276.239-4.732 3.876-5.07 3.85l-3.994 3.438.139.692c.573.878.319 1.977-.324 2.863-.1.138-1.746 1.648-1.883 1.767l-.009.116-1.131 2.654c-.036.115-.844 1.997-.911 2.097-.119.396-.328.76-.622 1.013l-92.772 79.83c-.315.273-5.428 4.404-5.801 4.314-.042-.01-.616.438-.657.424-.642.417-1.438.155-2.127-.301-6.3-4.175-4.142-2.43-8.078-8.646-.437-.69-.55-1.521-.097-2.068-.002-.003.044-.048.042-.051l.008-.01c-.32-.414 6.086-6.587 5.805-7.048-.319-.524 7.195-7.571 7.668-7.981l.036-.031 82.881-71.046c.097-.083.252-.191.363-.242l-.021-.03 5.463-1.713.012.012 1.84-1.59c.708-.613 2.038-.767 2.646-.074l.341.373 1.539-2.445 8.371-7.8 1.555-1.143-.363-.537c-.498-.809-.266-1.982.592-2.647.172-.062 2.615-2.014 2.794-2.002l4.199-3.587c-.374-.468-.491-1.156-.852-1.635a36.533 36.533 0 0 1-2.777-5.64c-.059-.095-.07-.229-.128-.324-7.014-11.791-10.532-25.494-9.754-39.854v-.028c1.077-19.765 10.175-37.376 24.598-49.831z" opacity=".026"/>
  <path d="M153.912 51.086c-11.82 10.12-20.193 23.922-22.831 39.641a63.635 63.635 0 0 0-.786 7.482c-.892 19 6.451 36.629 19.084 49.766 12.704 13.203 30.652 21.778 50.771 22.77 20.088.989 38.765-5.77 52.657-17.684 13.824-11.851 22.778-28.692 23.68-47.676.209-4.362.001-8.672-.646-12.856-2.132-13.818-8.748-26.386-18.314-36.346-13.099-13.579-31.735-22.147-52.378-22.667-19.58-.725-37.7 5.991-51.237 17.57zm-1.897-2.733c14.441-12.407 33.846-19.44 54.699-18.428h.029v.001c20.858 1.021 39.497 9.901 52.713 23.609 12.877 13.393 20.451 31.292 19.813 50.611a68.346 68.346 0 0 1-2.229 15.234c-3.483 13.142-10.861 24.754-20.755 33.813a75.547 75.547 0 0 1-25.015 15.594c-8.866 3.372-18.531 5.136-28.583 5.005-19.236-.258-36.854-7.303-50.198-18.806a103.254 103.254 0 0 1-6.072 4.567c-.849.593-1.977.332-2.834-.351-.021-.018-.487-.547-.511-.562-.159-.096-3.807 2.824-3.96 2.717-.056-.039-1.392 1.021-1.447.98l-.337.289c-.184.16-4.752 3.959-4.978 3.941l-3.966 3.414.244.646a2.183 2.183 0 0 1-.291 2.834c-.05.103-1.773 1.627-1.864 1.706l.015.102-1.125 2.641c-.024.076-.856 2.021-.901 2.087-.103.383-.295.735-.574.975l-92.263 79.367c-.21.182-5.454 4.513-5.703 4.453-.028-.007-.617.472-.645.462-.633.456-1.43.201-2.116-.254-6.443-4.269-4.005-2.255-7.994-8.643-.433-.693-.523-1.536-.017-2.078-.001-.002.048-.048.046-.05l.009-.01c-.213-.276 6.661-6.619 6.474-6.927-.213-.35 7.691-7.524 8.006-7.798l.034-.03 82.577-70.746c.103-.089.247-.188.366-.24l-.023-.031 5.506-1.583.013.013 1.833-1.586c.747-.646 2.05-.72 2.691.011l.385.428 1.739-2.427 8.154-8.071 1.515-1.177-.408-.545c-.575-.811-.385-2.018.462-2.7.115-.041 2.624-2.093 2.743-2.084l4.183-3.57c-.396-.494-.616-1.137-.996-1.642a45.247 45.247 0 0 1-3.107-5.601c-.062-.1-.092-.227-.152-.326-7.007-11.694-10.587-25.313-9.818-39.618l.001-.027v-.001c1.067-19.72 10.251-37.237 24.632-49.588z" opacity=".027"/>
  <path d="M153.821 50.518c-11.977 10.214-20.416 24.172-23.097 40.076a64.935 64.935 0 0 0-.815 7.564c-.948 19.113 6.391 36.85 19.046 50.072 12.699 13.265 30.698 21.943 50.954 22.977 20.238 1.031 39.013-5.764 52.971-17.679 13.919-11.88 22.984-28.792 23.942-47.904a65.177 65.177 0 0 0-.625-12.995c-2.104-13.982-8.706-26.716-18.358-36.808-12.896-13.454-31.239-22.128-51.771-22.927-19.979-.896-38.469 5.878-52.247 17.624zm-1.406-1.907c14.366-12.272 33.68-19.271 54.489-18.216h.029v.001c20.806 1.061 39.311 9.973 52.382 23.612 12.91 13.49 20.441 31.554 19.604 51.036a68.058 68.058 0 0 1-2.419 15.318c-3.674 13.198-11.264 24.812-21.424 33.77a75.682 75.682 0 0 1-25.34 14.939c-8.896 3.137-18.561 4.693-28.598 4.363-19.217-.635-36.605-8.02-49.628-19.714a103.876 103.876 0 0 1-5.956 5.01c-.839.654-1.976.42-2.819-.276-.011-.009-.487-.561-.499-.567-.079-.048-3.833 3.081-3.909 3.027-.028-.02-1.403 1.119-1.431 1.099l-.333.286c-.093.08-4.772 4.041-4.885 4.032l-3.939 3.39.35.6a2.083 2.083 0 0 1-.258 2.807c-.024.051-1.799 1.604-1.845 1.644l.037.088-1.119 2.626c-.012.039-.868 2.044-.891 2.077-.087.37-.263.712-.526.938l-91.753 78.903c-.105.092-5.479 4.623-5.604 4.594-.014-.004-.619.504-.632.499-.624.494-1.421.246-2.105-.206-6.585-4.363-3.875-2.077-7.91-8.642-.431-.696-.496-1.55.063-2.087-.001-.001.052-.049.052-.05l.01-.01c-.107-.138 7.236-6.651 7.142-6.805-.106-.175 8.187-7.478 8.345-7.614l.032-.028 82.273-70.448c.107-.093.242-.182.367-.237l-.024-.033 5.549-1.453.013.014 1.827-1.58c.787-.681 2.061-.675 2.736.095l.429.482 1.938-2.407 7.938-8.345 1.477-1.21-.454-.553c-.651-.813-.504-2.054.333-2.752.057-.021 2.631-2.172 2.69-2.168l4.166-3.553c-.415-.52-.739-1.117-1.14-1.648a56.566 56.566 0 0 1-3.438-5.561c-.065-.105-.114-.224-.178-.329-7-11.597-10.64-25.133-9.881-39.382v-.028c1.056-19.678 10.33-37.099 24.667-49.348z" opacity=".029"/>
  <path d="M258.15 55.459c-12.693-13.328-30.742-22.107-51.135-23.184h-.029v-.002c-20.377-1.067-39.236 5.765-53.256 17.676-14.014 11.906-23.189 28.892-24.205 48.131v.028h-.002c-1.006 19.226 6.33 37.069 19.008 50.378 12.695 13.326 30.744 22.107 51.137 23.184 20.389 1.074 39.26-5.758 53.285-17.675 14.014-11.907 23.189-28.892 24.205-48.132 1.013-19.235-6.325-37.09-19.008-50.404zm-51.027-24.593c20.752 1.103 39.123 10.046 52.051 23.616 12.943 13.588 20.432 31.815 19.395 51.46-1.037 19.643-10.4 36.979-24.701 49.13-14.289 12.142-33.512 19.103-54.279 18.008-19.195-1.014-36.355-8.736-49.057-20.624a102.94 102.94 0 0 1-5.84 5.454c-.828.715-2.1.631-2.805-.203l-.486-.574-3.859 3.339-10.447 8.988.455.554c.684.83.602 2.063-.225 2.778l-1.826 1.581.061.074-1.994 4.68c-.07.357-.23.688-.479.899l-96.749 83.173-.62.537c-.615.533-1.413.292-2.095-.159-6.728-4.457-3.726-1.91-7.825-8.64-.426-.699-.469-1.564.144-2.096l.057-.049.011-.01 98.494-84.291c.113-.098.238-.176.369-.234l-.025-.035 5.592-1.322.014.014 1.82-1.574a1.981 1.981 0 0 1 2.781.179l.473.537 9.859-11.005 1.438-1.244-.5-.561c-.729-.815-.623-2.09.203-2.805l6.789-5.786c-10.34-12.942-16.119-29.241-15.199-46.653v-.028c1.045-19.631 10.406-36.957 24.699-49.103 14.291-12.14 33.514-19.102 54.279-18.006h.027z" opacity=".03"/>
  <path fill="gray" fill-rule="evenodd" d="M133.607 26.497c26.174-29.815 73.396-33.793 105.475-8.885 16.75 13.008 26.053 31.321 27.395 50.097-2.924-16.232-11.873-31.646-26.508-43.009-32.077-24.909-79.3-20.93-105.473 8.884-12.508 14.246-17.941 31.813-16.713 48.991-3.487-19.349 1.59-39.864 15.824-56.078z" clip-rule="evenodd"/>
  <path fill="url(#e)" fill-rule="evenodd" d="M132.935 31.467C159.111 1.65 206.333-2.326 238.41 22.582s36.861 69.271 10.686 99.087-73.398 33.793-105.475 8.885c-32.077-24.909-36.862-69.273-10.686-99.087z" clip-rule="evenodd"/>
  <path fill="#4d4d4d" fill-rule="evenodd" d="M117.507 87.674l9.938 19.687 13.125 15.563 12.375 9.75 12.951 5.027 9.924 2.848 12.375 1.71 11.437-.585 17.438-3.375 15.187-7.125 14.625-11.063 9.75-11.812-4.687 10.125-10.5 10.312-15.938 10.688-14.25 5.062-16.125 1.688-20.25-.938-18.562-6.562-15.375-8.625-12.188-14.063-7.875-13.312-3.75-12.188z" clip-rule="evenodd"/>
  <path fill="#666" fill-rule="evenodd" d="M265.041 86.75c-1.299 13.484-6.762 26.717-16.582 37.901-26.174 29.815-73.396 33.793-105.473 8.884-21.527-16.715-30.762-42.191-26.596-66.154-2.164 22.461 7.223 45.621 27.266 61.186 32.076 24.909 79.299 20.932 105.475-8.885 8.609-9.807 13.869-21.188 15.91-32.932z" clip-rule="evenodd"/>
  <path fill="url(#f)" d="M132.392 25.77C145.738 10.569 164.439 1.947 183.89.293c19.453-1.652 39.65 3.666 55.979 16.346s25.703 30.326 27.658 48.604c1.955 18.275-3.506 37.178-16.852 52.379-13.344 15.199-32.047 23.822-51.496 25.475-19.455 1.654-39.652-3.664-55.98-16.344s-25.703-30.326-27.658-48.605c-1.956-18.275 3.507-37.178 16.851-52.378zm51.789-22.836c-18.727 1.592-36.738 9.897-49.594 24.54-12.855 14.644-18.117 32.849-16.236 50.444 1.883 17.592 10.912 34.58 26.639 46.793 15.729 12.214 35.174 17.336 53.896 15.745 18.729-1.591 36.738-9.897 49.594-24.54s18.119-32.848 16.236-50.443c-1.883-17.593-10.91-34.58-26.639-46.794-15.728-12.213-35.171-17.335-53.896-15.745z"/>
  <g fill-rule="evenodd" clip-rule="evenodd">
    <path fill="url(#g)" d="M143.218 134.057l-11.25-10.748-25.888 27.097 11.25 10.749z"/>
    <path fill="#4d4d4d" d="M129.677 125.705l-4.463 4.672c.891.394 1.99 1.102 3.338 2.282 3.408 2.983 4.986 7.622 5.699 10.785l5.934-6.212z"/>
    <path fill="url(#h)" d="M121.339 157.996c-3.938-4.416-7.959-8.564-12.287-11.738-.867-.635-.795-1.996-.041-2.787l2.25-2.355a1.984 1.984 0 0 1 2.787-.086c4.385 4.122 8.555 7.977 12.287 11.738.756.763.795 1.996.039 2.787l-2.248 2.354c-.755.79-2.072.89-2.787.087z"/>
    <path fill="url(#i)" d="M122.779 160.75c-7.131-5.224-12.391-10.318-16.852-15.799a1.493 1.493 0 0 0-2.101.04l-93.041 97.392c-.561.586-.435 1.444.056 2.1 4.72 6.311 9.74 12.31 16.86 16.107.722.385 1.538.549 2.1-.04l93.042-97.392c.561-.588.528-1.842-.064-2.408z"/>
    <path d="M11.336 241.806l-.612.642c-.561.586-.435 1.444.057 2.1 4.72 6.311 9.739 12.31 16.86 16.107.722.385 1.537.548 2.1-.041l.612-.641c-.562.588-1.378.425-2.1.039-7.12-3.797-12.141-9.797-16.86-16.106-.491-.656-.617-1.513-.057-2.1z"/>
    <path fill="url(#j)" d="M104.144 144.69c4.553 5.115 11.811 12.022 18.895 18.142l1.736-5.462c-5.021-5.103-9.996-9.601-15.189-14.527z"/>
    <path fill="url(#k)" d="M138.314 140.279c-4.438-4.335-8.525-8.264-12.338-11.787-.803-.742-.82-2.021-.064-2.811l5.277-5.525c.756-.79 1.938-.721 2.811-.063 4.643 3.493 8.721 7.444 12.338 11.787.701.841.82 2.021.064 2.811l-5.277 5.524c-.756.791-2.03.828-2.811.064z"/>
    <path fill="#666" d="M126.123 128.332l-.48-.46 7.664-8.007.48.46zm19.901 3.521l.483.46-7.677 8.052-.483-.46zm-18.487-2.282l-.48-.46 7.776-8.123.48.46zm17.213.898l.48.458-7.768 8.131-.48-.458zm-15.467.769l-.48-.46 7.915-8.268.48.46zm13.859-2.584l.48.459-7.907 8.276-.48-.458zm-11.709 4.622l-.48-.459 7.99-8.364.481.459zm2.117 2.039l-.48-.46 8.027-8.385.48.46z"/>
    <path fill="url(#l)" d="M137.611 106.926c-13.939-14.682-16.771-39.961-5.428-62.493 12.715-25.253 38.803-38.261 60.609-31.297-19.467 3.815-38.289 18.114-49.154 39.696-9.121 18.119-10.775 37.684-6.027 54.094z"/>
  </g>
  <path fill="url(#m)" d="M238.573 28.146c23.819 26.031 21.568 66.862-5.03 91.201-13.151 12.034-29.79 17.771-46.135 17.362 17.884 2.077 36.692-3.416 51.194-16.687 26.19-23.966 28.407-64.173 4.954-89.804a61.526 61.526 0 0 0-23.664-16.049 62.5 62.5 0 0 1 18.681 13.977z"/>
</svg>
