<?xml version="1.0" encoding="UTF-8"?>
<svg width="2481" height="2073" xmlns="http://www.w3.org/2000/svg">
  <g>
   <path d="m730.940002,1839.629028c-38.765991,-190.301025 -107.115967,-348.665039 -189.903015,-495.439941c-61.406982,-108.87207 -132.543976,-209.363037 -198.363983,-314.937988c-21.972015,-35.24408 -40.93399,-72.477051 -62.046997,-109.054077c-42.216003,-73.136963 -76.444,-157.934998 -74.268997,-267.932007c2.125,-107.472961 33.207993,-193.68399 78.029984,-264.171997c73.719025,-115.934967 197.201019,-210.988983 362.884003,-235.968979c135.466003,-20.423996 262.475037,14.082001 352.54303,66.748001c73.600037,43.037994 130.596008,100.527008 173.919983,168.279999c45.219971,70.716003 76.359009,154.26001 78.970947,263.231995c1.337036,55.830017 -7.804932,107.531982 -20.68396,150.417969c-13.033936,43.409058 -33.995972,79.695007 -52.645996,118.454041c-36.406006,75.658997 -82.04895,144.981995 -127.85498,214.346008c-136.437012,206.605957 -264.496033,417.309937 -320.580017,706.026978z" stroke-miterlimit="10" stroke-width="37" stroke="#000000" fill="#E81E25" clip-rule="evenodd" fill-rule="evenodd"/>
   <path d="m731.379028,1934.406982c131.604004,-120.864014 211.313965,-235.977051 269.138,-350.48999c42.892029,-84.942017 70.542053,-169.166016 106.952942,-254.061035c12.156006,-28.339966 28.508057,-56.567993 42.519043,-85.299927c28.018066,-57.449097 72.656982,-118.133057 169.030029,-178.096069c94.160034,-58.587952 193.954956,-93.755981 291.579956,-114.69696c160.565063,-34.442017 344.276978,-37.299011 502.592896,15.593018c129.444092,43.245972 204.674072,113.468933 233.778076,178.862976c23.782959,53.437988 21.427979,108.185059 -1.044922,163.103027c-23.455078,57.319946 -69.568115,116.064941 -161.10498,177.390991c-46.897949,31.416992 -98.900146,56.333008 -146.412109,74.868042c-48.087891,18.760986 -96.599976,30.391968 -145.328003,44.319946c-95.118896,27.187988 -192.419922,47.152954 -289.890991,67.07605c-290.322998,59.338989 -577.250977,124.320923 -871.809937,261.429932z" clip-rule="evenodd" fill-rule="evenodd" opacity="0.09"/>
   <circle r="183.333" cy="651.047" cx="729.546" clip-rule="evenodd" fill-rule="evenodd"/>
  </g>
</svg>
