<?xml version="1.0" encoding="UTF-8"?>
<svg xmlns="http://www.w3.org/2000/svg" width="1083.5753" height="1806.7811">
  <path style="clip-rule:evenodd;fill:#e81e25;fill-rule:evenodd;stroke:#000000;stroke-width:37;stroke-miterlimit:10" stroke-miterlimit="10" d="m 543.18023,1711.9836 c -38.766,-190.301 -107.116,-348.665 -189.903,-495.4399 -61.40699,-108.8721 -132.54399,-209.363 -198.364,-314.93799 -21.97201,-35.2441 -40.93399,-72.47705 -62.046988,-109.05408 -42.21601,-73.13696 -76.444,-157.935 -74.269,-267.932 2.125,-107.47297 33.20799,-193.68399 78.02998,-264.172 C 170.34625,144.51266 293.82824,49.458654 459.51123,24.478654 c 135.466,-20.4240002 262.475,14.082 352.543,66.748 73.6001,43.037986 130.596,100.527006 173.92,168.279996 45.21997,70.716 76.35897,154.26001 78.97097,263.23199 1.337,55.83002 -7.805,107.53199 -20.684,150.41797 -13.0339,43.40906 -33.996,79.69501 -52.64597,118.45404 -36.406,75.65896 -82.0489,144.98196 -127.855,214.34605 -136.437,206.6059 -264.496,417.3099 -320.58,706.0269 z" />
  <circle style="clip-rule:evenodd;fill-rule:evenodd" cx="541.78619" cy="523.40161" r="183.33299" />
</svg>